{"title":"Detective Byomkesh Bakshy (2015) DvD Rip - x264 - [1CD] - M-Subs","uid":11970014,"size":743590930,"categoryP":"video","categoryS":"other","magnet":"?xt=urn:btih:8485787c45e9e57cb174de1e9a7bbfa544c3bc31&amp;dn=Detective+Byomkesh+Bakshy+%282015%29+DvD+Rip+-+x264+-+%5B1CD%5D+-+M-Subs&amp;tr=udp%3A%2F%2Ftracker.openbittorrent.com%3A80&amp;tr=udp%3A%2F%2Fopen.demonii.com%3A1337&amp;tr=udp%3A%2F%2Ftracker.coppersurfer.tk%3A6969&amp;tr=udp%3A%2F%2Fexodus.desync.com%3A6969","seeders":2,"leechers":0,"uploader":"SS132203","files":20,"time":1432792486,"description":"Detective Byomkesh Bakshy (2015) DvD Rip - x264 - [1CD] - M-Subs - Team IcTv Exclusive \n &lt;a href=&quot;\nhttp://imgsparrow.co/image/47&quot; rel=&quot;nofollow&quot; target=&quot;_NEW&quot;&gt;\nhttp://imgsparrow.co/image/47&lt;/a&gt;\n &lt;a href=&quot;\nhttp://imgsparrow.co/image/DW&quot; rel=&quot;nofollow&quot; target=&quot;_NEW&quot;&gt;\nhttp://imgsparrow.co/image/DW&lt;/a&gt;\n &lt;a href=&quot;\nhttp://imgsparrow.co/image/9B&quot; rel=&quot;nofollow&quot; target=&quot;_NEW&quot;&gt;\nhttp://imgsparrow.co/image/9B&lt;/a&gt;\n\nInfo : - \n\nAll Credit Goes To Intellect Clever &amp; IcTv\nSample Within Torrent\n\nMovie Info\nBanner : Yash Raj Films\nYear : 2015\nCast : Sushant Singh Rajput.Anand Tiwari.Swastika Mukherjee.\nVideo: x264\nAudio : AC 3 Front: L C R, Side: L R, LFE\nGenre : Thriller\nSubtitles : English - Arabic\nResolution : 640 x 272\nRuntime : 2hr 19min\nSource : Team IcTv \n\nFormat                      : Matroska\nFormat version              : Version 2\nFile size                   : 697 MiB\nDuration                    : 2h 19mn\nOverall bit rate            : 700 Kbps\nEncoded date                : UTC 2015-05-27 22:46:34\nWriting application         : mkvmerge v7.7.0 ('Six Voices') 32bit built on Feb 28 2015 23:23:00\nWriting library             : libebml v1.3.1 + libmatroska v1.4.2\nDURATION                    : 02:19:03.040000000\nNUMBER_OF_FRAMES            : 260720\nNUMBER_OF_BYTES             : 400465920\n\nVideo\nID                          : 1\nFormat                      : AVC\nFormat/Info                 : Advanced Video Codec\nFormat profile              : High@L3\nFormat settings, CABAC      : Yes\nFormat settings, ReFrames   : 4 frames\nCodec ID                    : V_MPEG4/ISO/AVC\nDuration                    : 2h 19mn\nBit rate                    : 314 Kbps\nWidth                       : 640 pixels\nHeight                      : 272 pixels\nDisplay aspect ratio        : 2.35:1\nFrame rate mode             : Constant\nFrame rate                  : 29.970 fps\nColor space                 : YUV\nChroma subsampling          : 4:2:0\nBit depth                   : 8 bits\nScan type                   : Progressive\nBits/(Pixel*Frame)          : 0.060\nStream size                 : 300 MiB (43%)\nWriting library             : x264 core 146 r2538 121396c\nEncoding settings           : cabac=1 / ref=3 / deblock=1:0:0 / analyse=0x3:0x113 / me=hex / subme=7 / psy=1 / psy_rd=1.00:0.00 / mixed_ref=1 / me_range=16 \n\n/ chroma_me=1 / trellis=1 / 8x8dct=1 / cqm=0 / deadzone=21,11 / fast_pskip=1 / chroma_qp_offset=-2 / threads=12 / lookahead_threads=2 / \n\nsliced_threads=0 / nr=0 / decimate=1 / interlaced=0 / bluray_compat=0 / constrained_intra=0 / bframes=3 / b_pyramid=2 / b_adapt=1 / b_bias=0 / direct=1 \n\n/ weightb=1 / open_gop=0 / weightp=2 / keyint=300 / keyint_min=29 / scenecut=40 / intra_refresh=0 / rc_lookahead=40 / rc=2pass / mbtree=1 / \n\nbitrate=314 / ratetol=1.0 / qcomp=0.60 / qpmin=0 / qpmax=69 / qpstep=4 / cplxblur=20.0 / qblur=0.5 / ip_ratio=1.40 / aq=1:1.00\nDefault                     : Yes\nForced                      : No\n\nAudio\nID                          : 2\nFormat                      : AC-3\nFormat/Info                 : Audio Coding 3\nMode extension              : CM (complete main)\nFormat settings, Endianness : Big\nCodec ID                    : A_AC3\nDuration                    : 2h 19mn\nBit rate mode               : Constant\nBit rate                    : 384 Kbps\nChannel(s)                  : 6 channels\nChannel positions           : Front: L C R, Side: L R, LFE\nSampling rate               : 48.0 KHz\nCompression mode            : Lossy\nStream size                 : 382 MiB (55%)\n\nScreens : - \n &lt;a href=&quot;\nhttp://imgsparrow.co/image/DX&quot; rel=&quot;nofollow&quot; target=&quot;_NEW&quot;&gt;\nhttp://imgsparrow.co/image/DX&lt;/a&gt; &lt;a href=&quot;\nhttp://imgsparrow.co/image/DY&quot; rel=&quot;nofollow&quot; target=&quot;_NEW&quot;&gt;\nhttp://imgsparrow.co/image/DY&lt;/a&gt; &lt;a href=&quot;\nhttp://imgsparrow.co/image/Dc&quot; rel=&quot;nofollow&quot; target=&quot;_NEW&quot;&gt;\nhttp://imgsparrow.co/image/Dc&lt;/a&gt; &lt;a href=&quot;\nhttp://imgsparrow.co/image/Dd&quot; rel=&quot;nofollow&quot; target=&quot;_NEW&quot;&gt;\nhttp://imgsparrow.co/image/Dd&lt;/a&gt; &lt;a href=&quot;\nhttp://imgsparrow.co/image/Do&quot; rel=&quot;nofollow&quot; target=&quot;_NEW&quot;&gt;\nhttp://imgsparrow.co/image/Do&lt;/a&gt; &lt;a href=&quot;\nhttp://imgsparrow.co/image/DM&quot; rel=&quot;nofollow&quot; target=&quot;_NEW&quot;&gt;\nhttp://imgsparrow.co/image/DM&lt;/a&gt; &lt;a href=&quot;\nhttp://imgsparrow.co/image/Dm&quot; rel=&quot;nofollow&quot; target=&quot;_NEW&quot;&gt;\nhttp://imgsparrow.co/image/Dm&lt;/a&gt; &lt;a href=&quot;\nhttp://imgsparrow.co/image/DF&quot; rel=&quot;nofollow&quot; target=&quot;_NEW&quot;&gt;\nhttp://imgsparrow.co/image/DF&lt;/a&gt; &lt;a href=&quot;\nhttp://imgsparrow.co/image/DO&quot; rel=&quot;nofollow&quot; target=&quot;_NEW&quot;&gt;\nhttp://imgsparrow.co/image/DO&lt;/a&gt; &lt;a href=&quot;\nhttp://imgsparrow.co/image/Dp&quot; rel=&quot;nofollow&quot; target=&quot;_NEW&quot;&gt;\nhttp://imgsparrow.co/image/Dp&lt;/a&gt;\n &lt;a href=&quot;\nhttp://imgsparrow.co/image/N2&quot; rel=&quot;nofollow&quot; target=&quot;_NEW&quot;&gt;\nhttp://imgsparrow.co/image/N2&lt;/a&gt;","torrent":{"xt":"urn:btih:8485787c45e9e57cb174de1e9a7bbfa544c3bc31","amp;dn":"Detective+Byomkesh+Bakshy+%282015%29+DvD+Rip+-+x264+-+%5B1CD%5D+-+M-Subs","amp;tr":["udp%3A%2F%2Ftracker.openbittorrent.com%3A80","udp%3A%2F%2Fopen.demonii.com%3A1337","udp%3A%2F%2Ftracker.coppersurfer.tk%3A6969","udp%3A%2F%2Fexodus.desync.com%3A6969"],"infoHash":"8485787c45e9e57cb174de1e9a7bbfa544c3bc31","infoHashBuffer":{"type":"Buffer","data":[132,133,120,124,69,233,229,124,177,116,222,30,154,123,191,165,68,195,188,49]},"announce":[],"urlList":[]}}